# xmcd CD database file
#
# Track frame offsets:
#	150
#	12794
#	24214
#	40803
#	51710
#	63617
#	74058
#	85885
#	101372
#	120646
#
# Disc length: 1729 seconds
#
# Revision: 0
# Processed by: cddbd v1.5.2PL0 Copyright (c) Steve Scherf et al.
# Submitted via: CDex 1.51
#
DISCID=8506bf0a
DTITLE=Tennessee Outlaw Band - Tennessee Outlaw Band
DYEAR=2009
DGENRE=Country
TTITLE0=The Fugitive
TTITLE1=Together Always
TTITLE2=The Right Selection
TTITLE3=Five Pounds of Possum
TTITLE4=Are You Sure Hank Done It This Way
TTITLE5=Lacie Hates My Guitar
TTITLE6=Rock-A-Billy
TTITLE7=Country Down To My Soul
TTITLE8=Me and Jesus
TTITLE9=Windy And Warm
EXTD=YEAR: 2009
EXTT0=
EXTT1=
EXTT2=
EXTT3=
EXTT4=
EXTT5=
EXTT6=
EXTT7=
EXTT8=
EXTT9=
PLAYORDER=
